<?xml version="1.0" encoding="utf-8"?>
<!-- Generator: Adobe Illustrator 22.1.0, SVG Export Plug-In . SVG Version: 6.00 Build 0)  -->
<svg version="1.1" id="Layer_1" xmlns="http://www.w3.org/2000/svg" xmlns:xlink="http://www.w3.org/1999/xlink" x="0px" y="0px"
	 viewBox="0 0 201 204" style="enable-background:new 0 0 201 204;" xml:space="preserve">
<g>
	<path d="M151,44.8v116.3h-14.1c-2.1,0-3.8-0.3-5.2-1c-1.4-0.7-2.8-1.8-4.2-3.5L72.6,87.2c0.2,2.1,0.4,4.1,0.4,6
		c0.1,1.9,0.1,3.8,0.1,5.5v62.4H49.4V44.8h14.2c1.2,0,2.2,0.1,3,0.2c0.8,0.1,1.5,0.3,2.2,0.6c0.6,0.3,1.2,0.7,1.8,1.2
		c0.6,0.5,1.3,1.3,2,2.2l55.3,69.9c-0.3-2.2-0.5-4.4-0.6-6.5c-0.1-2.1-0.2-4.1-0.2-5.9V44.8H151z"/>
</g>
<g>
	<path d="M197.5,200.5H3.5V6.5h194V200.5z M25.5,178.5h150v-150h-150V178.5z"/>
</g>
</svg>
